# xmcd
#
# Track frame offsets:
#	150
#	16343
#	30772
#	43941
#	59904
#	71683
#	84371
#	101652
#	115201
#	129215
#	142475
#	155245
#	168566
#	180979
#	193801
#	207181
#
# Disc length: 2932 seconds
#
# Revision: 0
# Processed by: cddbd v1.5.2PL0 Copyright (c) Steve Scherf et al.
# Submitted via: dBpowerAMP V4.0
#
DISCID=e80b7210
DTITLE=METRÔ DO FORRÓ - METRÔ DO FORRÓ
DYEAR=1900
DGENRE=FORRÓ
TTITLE0=CUIDADO COM O CASAMENTO
TTITLE1=SAPATEIA MULHER FEIA
TTITLE2=PELE ALMA E CORAÇÃO
TTITLE3=NÃO VOU MAIS CHORAR
TTITLE4=TENTEI TE ESQUECER
TTITLE5=NOS BARES DA CIDADE
TTITLE6=TÔ INDO EMBORA
TTITLE7=OLHANDO NOS TEUS OLHOS
TTITLE8=NÃO TEM DIA NÃO TEM HORA
TTITLE9=EU NASCI PRA AMAR VOCÊ
TTITLE10=EU NUNCA AMEI ASSIM
TTITLE11=CHAMAR ATENÇÃO
TTITLE12=FERNANDA
TTITLE13=FILME DE AMOR
TTITLE14=O MEU BARRACO CAIU
TTITLE15=O PAU QUEBROU
EXTD=METRÔ DO FORRÓ VOL 2
EXTT0=
EXTT1=
EXTT2=
EXTT3=
EXTT4=
EXTT5=
EXTT6=
EXTT7=
EXTT8=
EXTT9=
EXTT10=
EXTT11=
EXTT12=
EXTT13=
EXTT14=
EXTT15=
PLAYORDER=
